<?xml version="1.0" standalone="no"?>
<!DOCTYPE svg PUBLIC "-//W3C//DTD SVG 20010904//EN"
 "http://www.w3.org/TR/2001/REC-SVG-20010904/DTD/svg10.dtd">
<svg version="1.0" xmlns="http://www.w3.org/2000/svg"
 width="534.000000pt" height="534.000000pt" viewBox="0 0 534.000000 534.000000"
 preserveAspectRatio="xMidYMid meet">
<metadata>
Created by potrace 1.14, written by Peter Selinger 2001-2017
</metadata>
<g transform="translate(0.000000,534.000000) scale(0.100000,-0.100000)"
fill="#000000" stroke="none">
<path d="M2458 5335 c-2 -2 -30 -6 -63 -8 -33 -3 -78 -8 -100 -12 -22 -3 -53
-8 -70 -10 -16 -2 -43 -7 -60 -10 -760 -149 -1411 -610 -1803 -1278 -159 -270
-284 -615 -328 -907 -3 -19 -7 -46 -9 -60 -27 -157 -27 -662 0 -760 2 -8 6
-33 10 -55 33 -226 132 -529 246 -757 50 -100 121 -222 131 -226 5 -2 8 -8 8
-13 0 -13 82 -130 169 -239 100 -126 302 -326 432 -427 253 -197 574 -365 858
-449 135 -40 361 -89 456 -99 233 -24 500 -24 665 1 415 61 725 170 1055 369
77 46 224 148 274 190 595 493 928 1118 997 1869 9 94 8 365 -1 446 -4 36 -8
81 -10 100 -15 166 -90 462 -166 653 -247 622 -711 1123 -1314 1418 -112 55
-291 128 -350 143 -5 2 -17 5 -25 8 -19 7 -99 29 -119 33 -9 2 -34 8 -56 13
-68 18 -187 40 -250 47 -33 4 -78 10 -101 14 -39 7 -469 13 -476 6z"/>
</g>
</svg>
